<svg width="40" height="40" viewBox="0 0 40 40" fill="none" xmlns="http://www.w3.org/2000/svg">
<path d="M20 40C14.6578 40 9.63531 37.9197 5.85781 34.1422C2.08031 30.3647 0 25.3422 0 20C0 14.6578 2.08039 9.63539 5.85781 5.85781C9.63523 2.08023 14.6578 0 20 0C25.3422 0 30.3647 2.08031 34.1422 5.85781C37.9197 9.63531 40 14.6578 40 20C40 25.3422 37.9196 30.3646 34.1422 34.1422C30.3648 37.9198 25.3422 40 20 40ZM20 2.5C10.3505 2.5 2.5 10.3505 2.5 20C2.5 29.6495 10.3505 37.5 20 37.5C29.6495 37.5 37.5 29.6495 37.5 20C37.5 10.3505 29.6495 2.5 20 2.5Z" fill="white"/>
<path d="M15.5 30.5C16.3284 30.5 17 29.8284 17 29C17 28.1716 16.3284 27.5 15.5 27.5C14.6716 27.5 14 28.1716 14 29C14 29.8284 14.6716 30.5 15.5 30.5Z" fill="white"/>
<path d="M26 30.5C26.8284 30.5 27.5 29.8284 27.5 29C27.5 28.1716 26.8284 27.5 26 27.5C25.1716 27.5 24.5 28.1716 24.5 29C24.5 29.8284 25.1716 30.5 26 30.5Z" fill="white"/>
<path d="M29 13.25H12.365L11.75 10.1C11.7149 9.92807 11.6207 9.77386 11.4836 9.66423C11.3466 9.5546 11.1755 9.49649 11 9.50003H8V11H10.385L13.25 25.4C13.2851 25.572 13.3793 25.7262 13.5164 25.8358C13.6534 25.9455 13.8245 26.0036 14 26H27.5V24.5H14.615L14 21.5H27.5C27.6734 21.5043 27.8429 21.4483 27.9796 21.3416C28.1163 21.235 28.2119 21.0842 28.25 20.915L29.75 14.165C29.7751 14.0537 29.7745 13.9382 29.7483 13.8272C29.722 13.7162 29.6708 13.6126 29.5985 13.5244C29.5261 13.4361 29.4347 13.3656 29.3309 13.318C29.2272 13.2705 29.114 13.2472 29 13.25ZM26.9 20H13.715L12.665 14.75H28.0625L26.9 20Z" fill="white"/>
</svg>
