<svg width="25" height="20" viewBox="0 0 25 20" fill="none" xmlns="http://www.w3.org/2000/svg">
<path d="M24.1683 3.06559C23.6692 2.54278 22.98 2.23384 22.1958 2.23384H18.251V2.18631C18.251 1.59221 18.0133 1.02186 17.6093 0.641635C17.2053 0.237643 16.6587 0 16.0646 0H8.93536C8.31749 0 7.77091 0.237643 7.36692 0.641635C6.96293 1.04563 6.72529 1.59221 6.72529 2.18631V2.23384H2.80418C2.01996 2.23384 1.3308 2.54278 0.831749 3.06559C0.3327 3.56464 0 4.27757 0 5.03802V16.8726C0 17.6568 0.308935 18.346 0.831749 18.8451C1.3308 19.3441 2.04373 19.6768 2.80418 19.6768H22.1958C22.98 19.6768 23.6692 19.3679 24.1683 18.8451C24.6673 18.346 25 17.6331 25 16.8726V5.03802C25 4.2538 24.6911 3.56464 24.1683 3.06559ZM23.7643 16.8726H23.7405C23.7405 17.3004 23.5741 17.6806 23.289 17.9658C23.0038 18.251 22.6236 18.4173 22.1958 18.4173H2.80418C2.37643 18.4173 1.9962 18.251 1.71103 17.9658C1.42586 17.6806 1.25951 17.3004 1.25951 16.8726V5.03802C1.25951 4.61027 1.42586 4.23004 1.71103 3.94487C1.9962 3.6597 2.37643 3.49335 2.80418 3.49335H7.39068C7.74715 3.49335 8.03232 3.20817 8.03232 2.85171V2.16255C8.03232 1.90114 8.12738 1.6635 8.29373 1.49715C8.46008 1.3308 8.69772 1.23574 8.95913 1.23574H16.0646C16.326 1.23574 16.5637 1.3308 16.73 1.49715C16.8964 1.6635 16.9914 1.90114 16.9914 2.16255V2.85171C16.9914 3.20817 17.2766 3.49335 17.6331 3.49335H22.2196C22.6473 3.49335 23.0276 3.6597 23.3127 3.94487C23.5979 4.23004 23.7643 4.61027 23.7643 5.03802V16.8726Z" fill="#532A2A" fill-opacity="0.8"/>
<path d="M12.4999 5.10947C10.8839 5.10947 9.41052 5.77487 8.3649 6.82049C7.2955 7.88988 6.65387 9.3395 6.65387 10.9555C6.65387 12.5714 7.31927 14.0448 8.3649 15.0905C9.43429 16.1598 10.8839 16.8015 12.4999 16.8015C14.1158 16.8015 15.5892 16.1361 16.6349 15.0905C17.7043 14.0211 18.3459 12.5714 18.3459 10.9555C18.3459 9.3395 17.6805 7.86612 16.6349 6.82049C15.5892 5.77487 14.1158 5.10947 12.4999 5.10947ZM15.7318 14.2112C14.9001 15.0192 13.7594 15.542 12.4999 15.542C11.2404 15.542 10.0997 15.0192 9.26794 14.2112C8.43619 13.3794 7.93714 12.2387 7.93714 10.9792C7.93714 9.71973 8.45995 8.57905 9.26794 7.7473C10.0997 6.91555 11.2404 6.4165 12.4999 6.4165C13.7594 6.4165 14.9001 6.93931 15.7318 7.7473C16.5636 8.57905 17.0626 9.71973 17.0626 10.9792C17.0864 12.2387 16.5636 13.3794 15.7318 14.2112Z" fill="#532A2A" fill-opacity="0.8"/>
<path d="M20.9602 7.41435C21.6033 7.41435 22.1246 6.89301 22.1246 6.2499C22.1246 5.60679 21.6033 5.08545 20.9602 5.08545C20.3171 5.08545 19.7957 5.60679 19.7957 6.2499C19.7957 6.89301 20.3171 7.41435 20.9602 7.41435Z" fill="#532A2A" fill-opacity="0.8"/>
</svg>
