<svg width="40" height="40" viewBox="0 0 40 40" fill="none" xmlns="http://www.w3.org/2000/svg">
<path d="M20 40C14.6578 40 9.63531 37.9197 5.85781 34.1422C2.08031 30.3647 0 25.3422 0 20C0 14.6578 2.08039 9.63539 5.85781 5.85781C9.63523 2.08023 14.6578 0 20 0C25.3422 0 30.3647 2.08031 34.1422 5.85781C37.9197 9.63531 40 14.6578 40 20C40 25.3422 37.9196 30.3646 34.1422 34.1422C30.3648 37.9198 25.3422 40 20 40ZM20 2.5C10.3505 2.5 2.5 10.3505 2.5 20C2.5 29.6495 10.3505 37.5 20 37.5C29.6495 37.5 37.5 29.6495 37.5 20C37.5 10.3505 29.6495 2.5 20 2.5Z" fill="white"/>
<path d="M30.4986 30.4075L28.9669 13.4658C28.9251 13.0032 28.5347 12.6488 28.0671 12.6488H24.9084V11.2339C24.9084 8.59694 22.7486 6.45161 20.0937 6.45161C17.439 6.45161 15.2794 8.59694 15.2794 11.2339V12.6488H12.1186C11.6509 12.6488 11.2605 13.0032 11.2187 13.4658L9.68103 30.4741C9.65838 30.7251 9.74295 30.9739 9.91412 31.1598C10.0853 31.3457 10.3273 31.4516 10.5809 31.4516H29.6049C29.6056 31.4516 29.6066 31.4516 29.6073 31.4516C30.1064 31.4516 30.5108 31.0499 30.5108 30.5543C30.5106 30.5044 30.5065 30.4552 30.4986 30.4075ZM17.0863 11.2339C17.0863 9.58651 18.4354 8.24627 20.0938 8.24627C21.7524 8.24627 23.1016 9.58651 23.1016 11.2339V12.6488H17.0863V11.2339ZM11.5691 29.6571L12.9446 14.4434H15.2794V16.0481C15.2794 16.5437 15.6837 16.9454 16.1828 16.9454C16.6819 16.9454 17.0863 16.5437 17.0863 16.0481V14.4434H23.1016V16.0481C23.1016 16.5437 23.506 16.9454 24.0051 16.9454C24.5042 16.9454 24.9086 16.5437 24.9086 16.0481V14.4434H27.2412L28.6166 29.6571H11.5691Z" fill="white"/>
</svg>
