<svg width="40" height="40" viewBox="0 0 40 40" fill="none" xmlns="http://www.w3.org/2000/svg">
<path d="M30.1186 20.1427C29.877 20.1427 29.681 20.3386 29.681 20.5803V29.703C29.681 29.9907 29.4469 30.2249 29.1592 30.2249H21.2094C20.9217 30.2249 20.6876 29.9907 20.6876 29.703V28.8058C20.6876 28.5642 20.4916 28.3682 20.25 28.3682C20.0083 28.3682 19.8124 28.5642 19.8124 28.8058V29.703C19.8124 29.8874 19.8483 30.0635 19.9136 30.2249H9.78771C9.7809 30.2249 9.77518 30.2191 9.77518 30.2123V22.0681C9.77518 21.8264 9.57924 21.6305 9.33759 21.6305C9.09594 21.6305 8.9 21.8264 8.9 22.0681V30.2124C8.9 30.7019 9.29813 31.1 9.78766 31.1H29.1591C29.9295 31.1 30.5561 30.4734 30.5561 29.703V20.5803C30.5562 20.3386 30.3603 20.1427 30.1186 20.1427Z" fill="white" stroke="white" stroke-width="0.2"/>
<path d="M25.9961 15.1496H29.1594C29.9298 15.1496 30.5564 15.7762 30.5565 16.5465V19.2299C30.5565 19.4716 30.3605 19.6675 30.1189 19.6675C29.8772 19.6675 29.6813 19.4716 29.6813 19.2299V16.5465C29.6813 16.2589 29.4471 16.0247 29.1594 16.0247H21.2096C20.922 16.0247 20.6878 16.2589 20.6878 16.5465V27.4556C20.6878 27.6972 20.4919 27.8932 20.2502 27.8932C20.0085 27.8932 19.8126 27.6972 19.8126 27.4556V26.2791H14.5633C14.3217 26.2791 14.1257 26.0832 14.1257 25.8415C14.1257 25.5998 14.3217 25.4039 14.5633 25.4039H19.8126V23.3109H14.5633C14.3217 23.3109 14.1257 23.1149 14.1257 22.8733C14.1257 22.6316 14.3217 22.4357 14.5633 22.4357H19.8126V20.3427H14.5633C14.3217 20.3427 14.1257 20.1468 14.1257 19.9051C14.1257 19.6635 14.3217 19.4675 14.5633 19.4675H19.8126V17.3745H14.5633C14.3217 17.3745 14.1257 17.1786 14.1257 16.9369C14.1257 16.6952 14.3217 16.4994 14.5633 16.4994H19.8134C19.8384 15.7507 20.455 15.1495 21.2096 15.1495H25.121V12.9582H22.2757C21.538 12.9582 20.9379 12.3582 20.9379 11.6204V8.77513H9.78795C9.78114 8.77513 9.77542 8.78085 9.77542 8.78766V20.7177C9.77542 20.9594 9.57949 21.1553 9.33783 21.1553C9.09618 21.1553 8.90024 20.9594 8.90024 20.7177V8.78766C8.90024 8.29813 9.29837 7.9 9.7879 7.9H21.3754H21.3755V8C21.4641 7.99982 21.5516 8.03625 21.6142 8.09892L25.9961 15.1496ZM25.9961 15.1496V12.5209V12.5207V15.1496ZM25.8679 12.2111L21.685 8.02826L25.8679 12.2111ZM21.8131 11.6204V9.39398L24.5021 12.0831H22.2757C22.0207 12.0831 21.8131 11.8755 21.8131 11.6204Z" fill="white" stroke="white" stroke-width="0.2"/>
<path d="M28.9039 17.5938C28.9039 17.1043 28.5057 16.7062 28.0162 16.7062H22.4112C21.9217 16.7062 21.5235 17.1043 21.5235 17.5938V19.4998C21.5235 19.9894 21.9217 20.3875 22.4112 20.3875H28.0162C28.5057 20.3875 28.9039 19.9894 28.9039 19.4998V17.5938ZM28.0287 19.4998C28.0287 19.5066 28.023 19.5123 28.0162 19.5123H22.4112C22.4044 19.5123 22.3987 19.5066 22.3987 19.4998V17.5938C22.3987 17.587 22.4044 17.5812 22.4112 17.5812H28.0162C28.023 17.5812 28.0287 17.587 28.0287 17.5938V19.4998Z" fill="white" stroke="white" stroke-width="0.2"/>
<path d="M21.5235 23.0598C21.5235 23.5306 21.9064 23.9135 22.3772 23.9135H23.02C23.4908 23.9135 23.8737 23.5306 23.8737 23.0598V22.417C23.8737 21.9462 23.4908 21.5633 23.02 21.5633H22.3772C21.9064 21.5633 21.5235 21.9462 21.5235 22.417V23.0598ZM22.3987 23.0384V22.4385H22.9986V23.0384H22.3987Z" fill="white" stroke="white" stroke-width="0.2"/>
<path d="M25.5137 22.9598H25.5137V23.0383H24.9138V22.4384H25.5137V22.9598ZM26.3889 22.417C26.3889 21.9462 26.006 21.5633 25.5352 21.5633H24.8924C24.4216 21.5633 24.0387 21.9462 24.0387 22.417V23.0598C24.0387 23.5306 24.4216 23.9135 24.8924 23.9135H25.5352C26.006 23.9135 26.3889 23.5306 26.3889 23.0598V22.417Z" fill="white" stroke="white" stroke-width="0.2"/>
<path d="M28.904 22.417C28.904 21.9462 28.5211 21.5633 28.0503 21.5633H27.4075C26.9367 21.5633 26.5538 21.9462 26.5538 22.417V23.0598C26.5538 23.5306 26.9367 23.9135 27.4075 23.9135H28.0503C28.5211 23.9135 28.904 23.5306 28.904 23.0598V22.417ZM28.0289 22.4384V23.0383H27.4289V22.4384H28.0289Z" fill="white" stroke="white" stroke-width="0.2"/>
<path d="M21.5235 25.812C21.5235 26.2828 21.9064 26.6657 22.3772 26.6657H23.02C23.4908 26.6657 23.8737 26.2828 23.8737 25.812V25.1692C23.8737 24.6984 23.4908 24.3155 23.02 24.3155H22.3772C21.9064 24.3155 21.5235 24.6984 21.5235 25.1692V25.812ZM22.3987 25.7906V25.1907H22.9986V25.7906H22.3987Z" fill="white" stroke="white" stroke-width="0.2"/>
<path d="M25.5137 25.712H25.5137V25.7906H24.9138V25.1907H25.5137V25.712ZM26.3889 25.1692C26.3889 24.6984 26.006 24.3155 25.5352 24.3155H24.8924C24.4216 24.3155 24.0387 24.6984 24.0387 25.1692V25.812C24.0387 26.2828 24.4216 26.6657 24.8924 26.6657H25.5352C26.006 26.6657 26.3889 26.2828 26.3889 25.812V25.1692Z" fill="white" stroke="white" stroke-width="0.2"/>
<path d="M21.5235 28.5645C21.5235 29.0353 21.9064 29.4182 22.3772 29.4182H23.02C23.4908 29.4182 23.8737 29.0353 23.8737 28.5645V27.9217C23.8737 27.4509 23.4908 27.068 23.02 27.068H22.3772C21.9064 27.068 21.5235 27.4508 21.5235 27.9217V28.5645ZM22.3987 28.5431V27.9431H22.9986V28.5431H22.3987Z" fill="white" stroke="white" stroke-width="0.2"/>
<path d="M25.5137 28.4644H25.5137V28.543H24.9138V27.9431H25.5137V28.4644ZM25.5351 27.068H24.8924C24.4216 27.068 24.0387 27.4508 24.0387 27.9217V28.5645C24.0387 29.0353 24.4216 29.4182 24.8924 29.4182H25.5352C26.006 29.4182 26.3889 29.0353 26.3889 28.5645V27.9217C26.3889 27.4508 26.006 27.068 25.5351 27.068Z" fill="white" stroke="white" stroke-width="0.2"/>
<path d="M27.9866 24.3155H27.4713C26.9653 24.3155 26.5538 24.727 26.5538 25.233V28.5007C26.5538 29.0067 26.9653 29.4181 27.4713 29.4181H27.9866C28.4925 29.4181 28.904 29.0067 28.904 28.5007V25.233C28.904 24.727 28.4925 24.3155 27.9866 24.3155ZM28.0289 28.5007C28.0289 28.5239 28.0098 28.543 27.9866 28.543H27.4713C27.448 28.543 27.4289 28.5239 27.4289 28.5007V25.233C27.4289 25.2098 27.448 25.1907 27.4713 25.1907H27.9866C28.0098 25.1907 28.0289 25.2098 28.0289 25.233V28.5007Z" fill="white" stroke="white" stroke-width="0.2"/>
<path d="M11.6965 14.4063H13.044C13.2856 14.4063 13.4816 14.2104 13.4816 13.9687C13.4816 13.727 13.2857 13.5311 13.044 13.5311H11.6965C11.4548 13.5311 11.2589 13.727 11.2589 13.9687C11.2589 14.2103 11.4548 14.4063 11.6965 14.4063Z" fill="white" stroke="white" stroke-width="0.2"/>
<path d="M14.1256 13.9687V13.9687C14.1256 14.2103 14.3215 14.4063 14.5632 14.4063H21.0602C21.3019 14.4063 21.4978 14.2104 21.4978 13.9687C21.4978 13.727 21.3019 13.5311 21.0602 13.5311H14.5632C14.3215 13.5311 14.1256 13.727 14.1256 13.9687Z" fill="white" stroke="white" stroke-width="0.2"/>
<path d="M11.6965 17.3745H13.044C13.2857 17.3745 13.4816 17.1786 13.4816 16.937C13.4816 16.6953 13.2857 16.4994 13.044 16.4994H11.6965C11.4548 16.4994 11.2589 16.6952 11.2589 16.937C11.2589 17.1787 11.4548 17.3745 11.6965 17.3745Z" fill="white" stroke="white" stroke-width="0.2"/>
<path d="M11.6965 20.3426H13.044C13.2857 20.3426 13.4816 20.1466 13.4816 19.905C13.4816 19.6633 13.2857 19.4674 13.044 19.4674H11.6965C11.4548 19.4674 11.2589 19.6633 11.2589 19.905C11.2589 20.1466 11.4548 20.3426 11.6965 20.3426Z" fill="white" stroke="white" stroke-width="0.2"/>
<path d="M11.6965 23.3108H13.044C13.2857 23.3108 13.4816 23.1149 13.4816 22.8732C13.4816 22.6316 13.2857 22.4356 13.044 22.4356H11.6965C11.4548 22.4356 11.2589 22.6316 11.2589 22.8732C11.2589 23.1149 11.4548 23.3108 11.6965 23.3108Z" fill="white" stroke="white" stroke-width="0.2"/>
<path d="M11.6965 26.2791H13.044C13.2856 26.2791 13.4816 26.0832 13.4816 25.8415C13.4816 25.5998 13.2857 25.4039 13.044 25.4039H11.6965C11.4548 25.4039 11.2589 25.5998 11.2589 25.8415C11.2589 26.0832 11.4548 26.2791 11.6965 26.2791Z" fill="white" stroke="white" stroke-width="0.2"/>
<path d="M20 40C14.6578 40 9.63531 37.9197 5.85781 34.1422C2.08031 30.3647 0 25.3422 0 20C0 14.6578 2.08039 9.63539 5.85781 5.85781C9.63523 2.08023 14.6578 0 20 0C25.3422 0 30.3647 2.08031 34.1422 5.85781C37.9197 9.63531 40 14.6578 40 20C40 25.3422 37.9196 30.3646 34.1422 34.1422C30.3648 37.9198 25.3422 40 20 40ZM20 2.5C10.3505 2.5 2.5 10.3505 2.5 20C2.5 29.6495 10.3505 37.5 20 37.5C29.6495 37.5 37.5 29.6495 37.5 20C37.5 10.3505 29.6495 2.5 20 2.5Z" fill="white"/>
</svg>
