<svg width="23" height="23" viewBox="0 0 23 23" fill="none" xmlns="http://www.w3.org/2000/svg">
<path d="M10.5416 23C9.48452 23 8.62491 22.1404 8.62491 21.0834C8.62491 20.0263 9.48452 19.1667 10.5416 19.1667C11.5986 19.1667 12.4582 20.0263 12.4582 21.0834C12.4582 22.1404 11.5986 23 10.5416 23ZM10.5416 20.125C10.0126 20.125 9.58323 20.5553 9.58323 21.0834C9.58323 21.6114 10.0126 22.0417 10.5416 22.0417C11.0705 22.0417 11.4999 21.6114 11.4999 21.0834C11.4999 20.5553 11.0705 20.125 10.5416 20.125Z" fill="#532A2A"/>
<path d="M17.2498 23C16.1927 23 15.3331 22.1404 15.3331 21.0834C15.3331 20.0263 16.1927 19.1667 17.2498 19.1667C18.3068 19.1667 19.1664 20.0263 19.1664 21.0834C19.1664 22.1404 18.3068 23 17.2498 23ZM17.2498 20.125C16.7208 20.125 16.2915 20.5553 16.2915 21.0834C16.2915 21.6114 16.7208 22.0417 17.2498 22.0417C17.7788 22.0417 18.2081 21.6114 18.2081 21.0834C18.2081 20.5553 17.7788 20.125 17.2498 20.125Z" fill="#532A2A"/>
<path d="M9.10406 8.62519H5.51035C5.24585 8.62519 5.03119 8.41053 5.03119 8.14603C5.03119 7.88153 5.24585 7.66687 5.51035 7.66687H9.10406C9.36856 7.66687 9.58322 7.88153 9.58322 8.14603C9.58322 8.41053 9.36856 8.62519 9.10406 8.62519Z" fill="#532A2A"/>
<path d="M18.304 18.2083H9.59281C8.52428 18.2083 7.57746 17.4925 7.29188 16.468L4.24537 5.83447C4.07287 5.21923 3.5065 4.79182 2.86538 4.79182H0.479161C0.214664 4.79182 0 4.57715 0 4.31266C0 4.04816 0.214664 3.8335 0.479161 3.8335H2.86538C3.93391 3.8335 4.88074 4.54936 5.16632 5.57381L8.21282 16.2074C8.38532 16.8226 8.95169 17.25 9.59281 17.25H18.304C18.9039 17.25 19.4472 16.8676 19.6562 16.2994L20.5273 13.9141C20.6183 13.6659 20.8934 13.5384 21.1425 13.6285C21.3907 13.7196 21.5191 13.9946 21.4281 14.2428L20.557 16.629C20.2091 17.5739 19.3045 18.2083 18.304 18.2083Z" fill="#532A2A"/>
<path d="M17.2498 13.4168C17.1866 13.4168 17.1233 13.4043 17.0639 13.3784C16.8358 13.2835 11.4999 10.9769 11.4999 6.26384V2.25901C11.4999 2.05393 11.6312 1.87089 11.8257 1.80476L17.0965 0.025156C17.1961 -0.00838532 17.3044 -0.00838532 17.4031 0.025156L22.6739 1.80476C22.8685 1.87089 22.9997 2.05393 22.9997 2.25901V6.26384C22.9997 10.9769 17.6638 13.2835 17.4357 13.3794C17.3763 13.4043 17.3131 13.4168 17.2498 13.4168ZM12.4582 2.60304V6.26384C12.4582 9.89109 16.3442 11.9735 17.2498 12.4105C18.1545 11.9726 22.0414 9.88246 22.0414 6.26384V2.60304L17.2498 0.985395L12.4582 2.60304Z" fill="#532A2A"/>
<path d="M16.7706 8.62513C16.762 8.62513 16.7524 8.62513 16.7447 8.62417C16.6077 8.6165 16.4821 8.55134 16.3968 8.44497L14.4802 6.04916C14.3154 5.84216 14.348 5.54125 14.555 5.37546C14.7639 5.21063 15.0638 5.24417 15.2287 5.45021L16.8099 7.42819L19.7855 4.45259C19.9723 4.26572 20.2761 4.26572 20.463 4.45259C20.6499 4.63947 20.6499 4.94326 20.463 5.13013L17.1089 8.48426C17.0198 8.5753 16.8971 8.62513 16.7706 8.62513Z" fill="#532A2A"/>
</svg>
