<svg width="23" height="22" viewBox="0 0 23 22" fill="none" xmlns="http://www.w3.org/2000/svg">
<path d="M13.3334 4.50003L18.0001 9.16669M13.3334 4.50003L16.0086 1.82486C16.2274 1.60614 16.5241 1.48328 16.8334 1.48328C17.1428 1.48328 17.4395 1.60614 17.6582 1.82486L20.6752 4.84186C20.894 5.06064 21.0168 5.35734 21.0168 5.66669C21.0168 5.97605 20.894 6.27274 20.6752 6.49153L18.0001 9.16669L13.3334 4.50003ZM13.3334 4.50003L2.00858 15.8249C1.78977 16.0436 1.66681 16.3403 1.66675 16.6497V19.6667C1.66675 19.9761 1.78966 20.2729 2.00846 20.4917C2.22725 20.7104 2.524 20.8334 2.83341 20.8334H5.85041C6.15981 20.8333 6.45651 20.7103 6.67525 20.4915L18.0001 9.16669L13.3334 4.50003Z" stroke="white" stroke-opacity="0.9" stroke-width="2" stroke-linecap="round" stroke-linejoin="round"/>
</svg>
